<svg 
 xmlns="http://www.w3.org/2000/svg"
 xmlns:xlink="http://www.w3.org/1999/xlink"
 width="19px" height="22px">
<path fill-rule="evenodd"  fill="rgb(66, 67, 69)"
 d="M3.949,12.722 C5.030,10.843 3.602,10.430 3.378,9.069 C2.462,3.503 9.908,-0.299 13.808,3.591 C16.506,6.284 14.729,14.566 10.379,13.705 C6.212,12.883 12.420,6.291 9.094,4.997 C6.391,3.944 4.956,8.213 6.238,10.334 C5.485,13.983 3.867,17.419 4.523,21.993 C6.647,20.478 7.364,17.575 7.951,14.547 C9.019,15.186 9.591,15.849 10.952,15.952 C15.974,16.335 18.780,11.023 18.092,6.120 C17.484,1.774 13.077,-0.439 8.378,0.080 C4.662,0.490 0.959,3.442 0.804,7.666 C0.711,10.244 1.455,12.179 3.949,12.722 Z"/>
</svg>